<svg width="800" height="800" viewBox="0 0 800 800" xmlns="http://www.w3.org/2000/svg">
    <rect width="100%" height="100%" fill="#050505"/>
    <path d="M 100 100 L 133.33333333333334 100.0 L 150.00000000000003 71.1324865405187 L 166.6666666666667 100.0 L 200.00000000000006 100.0 L 216.66666666666674 71.1324865405187 L 200.00000000000009 42.2649730810374 L 233.33333333333343 42.2649730810374 L 250.0000000000001 13.397459621556102 L 266.6666666666668 42.2649730810374 L 300.0000000000001 42.2649730810374 L 283.3333333333334 71.1324865405187 L 300.0000000000001 100.0 L 333.3333333333335 100.0 L 350.00000000000017 71.1324865405187 L 366.66666666666686 100.0 L 400.0000000000002 100.0 L 416.6666666666669 71.1324865405187 L 400.0000000000002 42.2649730810374 L 433.3333333333336 42.2649730810374 L 450.0000000000003 13.397459621556102 L 433.3333333333336 -15.4700538379252 L 400.0000000000002 -15.470053837925203 L 416.6666666666669 -44.337567297406494 L 400.0000000000002 -73.2050807568878 L 433.3333333333336 -73.2050807568878 L 450.0000000000003 -102.07259421636908 L 466.66666666666697 -73.20508075688778 L 500.00000000000034 -73.20508075688778 L 516.666666666667 -102.07259421636908 L 500.0000000000003 -130.94010767585038 L 533.3333333333336 -130.94010767585038 L 550.0000000000002 -159.8076211353317 L 566.6666666666669 -130.94010767585038 L 600.0000000000002 -130.94010767585038 L 583.3333333333336 -102.07259421636908 L 600.0000000000002 -73.20508075688778 L 633.3333333333336 -73.20508075688778 L 650.0000000000002 -102.07259421636908 L 666.6666666666669 -73.20508075688778 L 700.0000000000002 -73.20508075688778 L 683.3333333333336 -44.33756729740648 L 700.0000000000002 -15.470053837925185 L 666.6666666666669 -15.470053837925182 L 650.0000000000002 13.39745962155612 L 666.6666666666669 42.26497308103741 L 700.0000000000002 42.26497308103741 L 683.3333333333336 71.13248654051871 L 700.0000000000002 100.0 L 733.3333333333336 100.0 L 750.0000000000002 71.1324865405187 L 766.6666666666669 100.0 L 800.0000000000002 100.0 L 816.6666666666669 71.1324865405187 L 800.0000000000002 42.2649730810374 L 833.3333333333336 42.2649730810374 L 850.0000000000002 13.397459621556102 L 866.6666666666669 42.2649730810374 L 900.0000000000002 42.2649730810374 L 883.3333333333336 71.1324865405187 L 900.0000000000002 100.0 L 933.3333333333336 100.0 L 950.0000000000002 71.1324865405187 L 966.6666666666669 100.0 L 1000.0000000000002 100.0 L 1016.6666666666669 71.1324865405187 L 1000.0000000000002 42.2649730810374 L 1033.3333333333335 42.2649730810374 L 1050.0000000000002 13.397459621556102 L 1033.3333333333335 -15.4700538379252 L 1000.0000000000001 -15.470053837925203 L 1016.6666666666667 -44.337567297406494 L 1000.0000000000001 -73.2050807568878 L 1033.3333333333335 -73.2050807568878 L 1050.0000000000002 -102.07259421636908 L 1066.666666666667 -73.20508075688778 L 1100.0000000000002 -73.20508075688778 L 1116.666666666667 -102.07259421636908 L 1100.0000000000002 -130.94010767585038 L 1133.3333333333335 -130.94010767585038 L 1150.0000000000002 -159.8076211353317 L 1133.3333333333335 -188.675134594813 L 1100.0000000000002 -188.675134594813 L 1116.666666666667 -217.5426480542943 L 1100.0000000000002 -246.4101615137756 L 1066.666666666667 -246.4101615137756 L 1050.0000000000002 -217.54264805429432 L 1033.3333333333335 -246.41016151377562 L 1000.0000000000001 -246.41016151377562 L 1016.6666666666667 -275.2776749732569 L 1000.0000000000001 -304.1451884327382 L 1033.3333333333335 -304.1451884327382 L 1050.0000000000002 -333.0127018922195 L 1033.3333333333335 -361.8802153517008 L 1000.0000000000001 -361.8802153517008 L 1016.6666666666667 -390.7477288111821 L 1000.0000000000001 -419.61524227066343 L 1033.3333333333335 -419.61524227066343 L 1050.0000000000002 -448.48275573014473 L 1066.666666666667 -419.61524227066343 L 1100.0000000000002 -419.61524227066343 L 1116.666666666667 -448.48275573014473 L 1100.0000000000002 -477.35026918962603 L 1133.3333333333335 -477.35026918962603 L 1150.0000000000002 -506.21778264910733 L 1166.666666666667 -477.35026918962603 L 1200.0000000000002 -477.35026918962603 L 1183.3333333333335 -448.48275573014473 L 1200.0000000000002 -419.61524227066343 L 1233.3333333333335 -419.61524227066343 L 1250.0000000000002 -448.48275573014473 L 1266.666666666667 -419.61524227066343 L 1300.0000000000002 -419.61524227066343 L 1316.666666666667 -448.48275573014473 L 1300.0000000000002 -477.35026918962603 L 1333.3333333333335 -477.35026918962603 L 1350.0000000000002 -506.21778264910733 L 1333.3333333333335 -535.0852961085886 L 1300.0000000000002 -535.0852961085886 L 1316.666666666667 -563.9528095680699 L 1300.0000000000002 -592.8203230275512 L 1333.3333333333335 -592.8203230275512 L 1350.0000000000002 -621.6878364870325 L 1366.666666666667 -592.8203230275512 L 1400.0000000000002 -592.8203230275512 L 1416.666666666667 -621.6878364870325 L 1400.0000000000002 -650.5553499465138 L 1433.3333333333335 -650.5553499465138 L 1450.0000000000002 -679.4228634059951 L 1466.666666666667 -650.5553499465138 L 1500.0000000000002 -650.5553499465138 L 1483.3333333333335 -621.6878364870325 L 1500.0000000000002 -592.8203230275512 L 1533.3333333333335 -592.8203230275512 L 1550.0000000000002 -621.6878364870325 L 1566.666666666667 -592.8203230275512 L 1600.0000000000002 -592.8203230275512 L 1583.3333333333335 -563.9528095680699 L 1600.0000000000002 -535.0852961085886 L 1566.666666666667 -535.0852961085886 L 1550.0000000000002 -506.21778264910733 L 1566.666666666667 -477.35026918962603 L 1600.0000000000002 -477.35026918962603 L 1583.3333333333335 -448.48275573014473 L 1600.0000000000002 -419.61524227066343 L 1633.3333333333335 -419.61524227066343 L 1650.0000000000002 -448.48275573014473 L 1666.666666666667 -419.61524227066343 L 1700.0000000000002 -419.61524227066343 L 1716.666666666667 -448.48275573014473 L 1700.0000000000002 -477.35026918962603 L 1733.3333333333335 -477.35026918962603 L 1750.0000000000002 -506.21778264910733 L 1766.666666666667 -477.35026918962603 L 1800.0000000000002 -477.35026918962603 L 1783.3333333333335 -448.48275573014473 L 1800.0000000000002 -419.61524227066343 L 1833.3333333333335 -419.61524227066343 L 1850.0000000000002 -448.48275573014473 L 1866.666666666667 -419.61524227066343 L 1900.0000000000002 -419.61524227066343 L 1883.3333333333335 -390.7477288111821 L 1900.0000000000002 -361.8802153517008 L 1866.666666666667 -361.8802153517008 L 1850.0000000000002 -333.0127018922195 L 1866.666666666667 -304.1451884327382 L 1900.0000000000002 -304.1451884327382 L 1883.3333333333335 -275.2776749732569 L 1900.0000000000002 -246.41016151377562 L 1866.666666666667 -246.41016151377562 L 1850.0000000000002 -217.54264805429432 L 1833.3333333333335 -246.41016151377562 L 1800.0000000000002 -246.41016151377562 L 1783.3333333333335 -217.54264805429432 L 1800.0000000000002 -188.67513459481302 L 1766.666666666667 -188.67513459481302 L 1750.0000000000002 -159.80762113533171 L 1766.666666666667 -130.9401076758504 L 1800.0000000000002 -130.9401076758504 L 1783.3333333333335 -102.07259421636911 L 1800.0000000000002 -73.20508075688781 L 1833.3333333333335 -73.20508075688781 L 1850.0000000000002 -102.07259421636911 L 1866.666666666667 -73.20508075688781 L 1900.0000000000002 -73.20508075688781 L 1883.3333333333335 -44.33756729740651 L 1900.0000000000002 -15.470053837925214 L 1866.666666666667 -15.47005383792521 L 1850.0000000000002 13.397459621556091 L 1866.666666666667 42.26497308103738 L 1900.0000000000002 42.26497308103738 L 1883.3333333333335 71.13248654051868 L 1900.0000000000002 99.99999999999997 L 1933.3333333333335 99.99999999999997 L 1950.0000000000002 71.13248654051867 L 1966.666666666667 99.99999999999997 L 2000.0000000000002 99.99999999999997 L 2016.666666666667 71.13248654051867 L 2000.0000000000002 42.26497308103737 L 2033.3333333333335 42.26497308103737 L 2050.0 13.397459621556074 L 2066.6666666666665 42.26497308103737 L 2100.0 42.26497308103737 L 2083.3333333333335 71.13248654051867 L 2100.0 99.99999999999997 L 2133.3333333333335 99.99999999999997 L 2150.0 71.13248654051867 L 2166.6666666666665 99.99999999999997 L 2200.0 99.99999999999997 L 2216.6666666666665 71.13248654051867 L 2200.0 42.26497308103737 L 2233.3333333333335 42.26497308103737 L 2250.0 13.397459621556074 L 2233.3333333333335 -15.470053837925228 L 2200.0 -15.470053837925231 L 2216.6666666666665 -44.33756729740652 L 2200.0 -73.20508075688782 L 2233.3333333333335 -73.20508075688782 L 2250.0 -102.07259421636911 L 2266.6666666666665 -73.20508075688781 L 2300.0 -73.20508075688781 L 2316.6666666666665 -102.07259421636911 L 2300.0 -130.9401076758504 L 2333.3333333333335 -130.9401076758504 L 2350.0 -159.80762113533171 L 2366.6666666666665 -130.9401076758504 L 2400.0 -130.9401076758504 L 2383.3333333333335 -102.07259421636911 L 2400.0 -73.20508075688781 L 2433.3333333333335 -73.20508075688781 L 2450.0 -102.07259421636911 L 2466.6666666666665 -73.20508075688781 L 2500.0 -73.20508075688781 L 2483.3333333333335 -44.33756729740651 L 2500.0 -15.470053837925214 L 2466.6666666666665 -15.47005383792521 L 2450.0 13.397459621556091 L 2466.6666666666665 42.26497308103738 L 2500.0 42.26497308103738 L 2483.3333333333335 71.13248654051868 L 2500.0 99.99999999999997 L 2533.3333333333335 99.99999999999997 L 2550.0 71.13248654051867 L 2566.6666666666665 99.99999999999997 L 2600.0 99.99999999999997 L 2616.6666666666665 71.13248654051867 L 2600.0 42.26497308103737 L 2633.3333333333335 42.26497308103737 L 2650.0 13.397459621556074 L 2666.6666666666665 42.26497308103737 L 2700.0 42.26497308103737 L 2683.3333333333335 71.13248654051867 L 2700.0 99.99999999999997 L 2733.3333333333335 99.99999999999997 L 2750.0 71.13248654051867 L 2766.6666666666665 99.99999999999997 L 2800.0 99.99999999999997" stroke="#00FFCC" stroke-width="1" fill="none" opacity="0.8"/>
    </svg>